# Blender 3.5.1
# www.blender.org
mtllib dr_cube2.mtl
o Cube
v -17.057379 -19.314886 17.057381
v -17.057379 -17.057377 19.314890
v -19.314888 -17.057377 17.057381
v -17.057379 17.057381 19.314886
v -17.057379 19.314890 17.057377
v -19.314888 17.057381 17.057377
v -17.057379 -19.314890 -17.057377
v -19.314888 -17.057381 -17.057377
v -17.057379 -17.057381 -19.314886
v -17.057379 19.314886 -17.057381
v -17.057379 17.057377 -19.314890
v -19.314888 17.057377 -17.057381
v 17.057379 -19.314886 17.057381
v 19.314888 -17.057377 17.057381
v 17.057379 -17.057377 19.314890
v 17.057379 19.314890 17.057377
v 17.057379 17.057381 19.314886
v 19.314888 17.057381 17.057377
v 17.057379 -19.314890 -17.057377
v 17.057379 -17.057381 -19.314886
v 19.314888 -17.057381 -17.057377
v 17.057379 19.314886 -17.057381
v 19.314888 17.057377 -17.057381
v 17.057379 17.057377 -19.314890
vn -0.0000 -0.0000 1.0000
vn 1.0000 -0.0000 -0.0000
vn -0.0000 1.0000 -0.0000
vn -1.0000 -0.0000 -0.0000
vn -0.0000 -0.0000 -1.0000
vn -0.5774 -0.5774 0.5774
vn -0.5774 0.5774 0.5774
vn -0.5774 -0.5774 -0.5774
vn -0.5774 0.5774 -0.5774
vn 0.5774 -0.5774 0.5774
vn 0.5774 0.5774 0.5774
vn 0.5774 -0.5774 -0.5774
vn 0.5774 0.5774 -0.5774
vn -0.7071 -0.7071 -0.0000
vn -0.7071 -0.0000 0.7071
vn -0.7071 0.7071 -0.0000
vn -0.7071 -0.0000 -0.7071
vn -0.0000 -0.7071 -0.7071
vn -0.0000 0.7071 -0.7071
vn 0.7071 -0.0000 -0.7071
vn 0.7071 -0.7071 -0.0000
vn 0.7071 0.7071 -0.0000
vn 0.7071 -0.0000 0.7071
vn -0.0000 -0.7071 0.7071
vn -0.0000 0.7071 0.7071
vn -0.0000 -1.0000 -0.0000
vt 0.050091 1.023681
vt 0.024892 0.988403
vt 0.042204 0.981016
vt -0.003253 0.027893
vt 0.050091 1.086985
vt 0.037064 0.023161
vt -0.013214 1.023681
vt -0.003253 0.091197
vt 0.998831 0.981016
vt 0.953374 0.027893
vt 0.966073 1.046532
vt 0.988924 0.998282
vt 1.016678 0.091197
vt 1.029377 1.046532
vt 0.993691 0.023161
vt 0.953374 0.091197
vt 0.050091 0.067054
vt 0.024892 0.031776
vt 0.037064 0.979788
vt -0.013214 0.067054
vt 0.551992 0.956149
vt 0.015796 0.012455
vt 0.560076 0.516721
vt 0.050091 0.003750
vt 0.988924 0.041656
vt 1.016678 1.047824
vt 1.035727 0.012455
vt 0.953374 1.111128
vt 0.966084 0.516721
vt 0.972422 0.012455
vt 0.993691 0.979788
vt 0.953374 1.047824
vt 0.957999 0.956149
vt 0.980639 0.945902
vt 1.006717 1.023681
vt 0.981519 0.988403
vt 0.038474 0.977314
vt 1.070022 1.023681
vt 0.560076 0.959376
vt 0.042204 0.024390
vt 0.557382 0.549593
vt 1.006717 1.086985
vt 0.032297 0.998282
vt 0.567080 0.935122
vt 1.029377 0.089906
vt 0.998831 0.024390
vt 0.963389 0.549593
vt 0.966073 0.089906
vt 0.995101 0.977314
vt 0.966073 0.026601
vt 0.966084 0.959376
vt 1.006717 0.067054
vt 0.980639 0.539894
vt 0.981519 0.031776
vt 0.015796 0.969081
vt 1.006717 0.003750
vt 0.560076 0.922729
vt 0.038474 0.020687
vt 1.070022 0.067054
vt 0.560076 0.553369
vt 0.032297 0.041656
vt 1.035727 0.969081
vt 0.567080 0.529115
vt 0.995101 0.020687
vt 0.972422 0.035498
vt 0.966084 0.553369
vt 0.972422 0.969081
vt 0.966084 0.922729
s 0
usemtl Material
f 15/40/1 17/46/1 4/9/1 2/3/1
f 21/58/2 23/64/2 18/49/2 14/37/2
f 22/61/3 10/25/3 5/12/3 16/43/3
f 3/6/4 6/15/4 12/31/4 8/19/4
f 9/22/5 11/30/5 24/67/5 20/55/5
f 1/1/6 2/5/6 3/7/6
f 4/10/7 5/13/7 6/16/7
f 7/17/8 8/20/8 9/24/8
f 10/26/9 11/28/9 12/32/9
f 13/35/10 14/38/10 15/42/10
f 16/45/11 17/48/11 18/50/11
f 19/52/12 20/56/12 21/59/12
f 22/62/13 23/65/13 24/67/13
f 7/17/14 1/1/14 3/7/14 8/20/14
f 2/4/15 4/10/15 6/16/15 3/8/15
f 5/13/16 10/26/16 12/32/16 6/16/16
f 11/29/17 9/23/17 8/21/17 12/33/17
f 19/52/18 7/17/18 9/24/18 20/56/18
f 10/27/19 22/62/19 24/67/19 11/30/19
f 23/66/20 21/60/20 20/57/20 24/68/20
f 13/34/21 19/53/21 21/60/21 14/39/21
f 22/63/22 16/44/22 18/51/22 23/66/22
f 17/47/23 15/41/23 14/39/23 18/51/23
f 1/1/24 13/35/24 15/42/24 2/5/24
f 16/45/25 5/14/25 4/11/25 17/48/25
f 7/18/26 19/54/26 13/36/26 1/2/26
